<?xml version="1.0" encoding="UTF-8"?>
<svg xmlns="http://www.w3.org/2000/svg" xmlns:xlink="http://www.w3.org/1999/xlink" viewBox="0 0 55.26 25.81">
  <defs>
    <style>
      .cls-1 {
        fill: url(#radial-gradient);
        mix-blend-mode: multiply;
        opacity: .46;
      }

      .cls-2 {
        isolation: isolate;
      }

      .cls-3 {
        fill: #fff;
      }

      .cls-4 {
        fill: #b41d22;
      }
    </style>
    <radialGradient id="radial-gradient" cx="100.44" cy="24.59" fx="100.44" fy="24.59" r="20.27" gradientTransform="translate(-76.25) scale(1.09 1)" gradientUnits="userSpaceOnUse">
      <stop offset="0" stop-color="#fff"/>
      <stop offset=".39" stop-color="#acacad"/>
      <stop offset="1" stop-color="#787778"/>
    </radialGradient>
  </defs>
  <g class="cls-2">
    <g id="Layer_2" data-name="Layer 2">
      <g id="Layer_1-2" data-name="Layer 1">
        <g>
          <g>
            <path class="cls-4" d="M30.69,25.32c-6,0-8.83-2.98-8.95-3.11-.12-.13-.16-.31-.11-.48,0-.02.63-2.06-.26-3.58-.47-.8-1.3-1.34-2.47-1.58-.5-.1-.95-.16-1.35-.16-.44,0-.83.06-1.14.19-.51.21-.77.58-.9.95.27-.17.58-.34.93-.47.4-.14.8-.22,1.18-.22.7,0,1.35.23,1.94.7,1.09.85,1.49,2.22,1.04,3.58-.52,1.56-1.95,2.6-3.66,2.64h-.17c-1.99,0-2.88-.87-3.28-1.57-.71.66-2.11,1.58-4.34,1.58-.6,0-1.23-.07-1.87-.2-3.79-.81-4.14-2.63-4.44-4.24-.08-.44-.16-.86-.31-1.27-.59-1.63-1.5-1.69-1.54-1.7-.2,0-.37-.14-.44-.32-.07-.18-.02-.39.12-.53,0,0,.12-.11.34-.27,0,0,.09-.07.1-.07.52-.32,1.1-.49,1.68-.49.74,0,1.49.26,2.22.79.82.58,1.6.91,2.2.91,1.08,0,1.67-1.07,1.75-3.17.1-2.68,2.03-4.35,5.03-4.35,1.42,0,2.93.38,4.33,1.08-.06-1.33.1-3.8,1.7-5.91,1.54-2.02,4.01-3.21,7.35-3.52.4-.04.79-.06,1.16-.06,5.29,0,8.12,3.55,8.5,6.84.33,2.83-1.07,6.11-4.94,7.03-.87.21-1.68.31-2.4.31-1.59,0-2.83-.49-3.68-1.47-.26-.29-.46-.61-.62-.94.02.07.05.13.07.2.37.91,1.18,1.58,2.4,2,.84.29,1.72.44,2.6.44,3.65,0,6.65-2.46,6.71-5.49,0-.16.09-.31.22-.4.08-.05.17-.08.27-.08.06,0,.13.01.19.04.1.04,2.57,1.09,3.28,3.59.04.14.01.29-.07.41.69-.41,1.51-.64,2.36-.64,1.77,0,3.46.99,4.74,2.8,1.62,2.28,3.35,2.83,4.51,2.88,0,0,.21,0,.21,0,.24,0,.46-.02.64-.04.27-.04.45-.09.54-.12.02,0,.08-.02.1-.03.03,0,.06,0,.09,0,.15,0,.3.07.39.2.11.15.13.35.05.52-.02.03-1.72,3.34-5.26,3.34-.23,0-.46-.01-.7-.04-.43.78-1.7,2.52-4.49,2.52-.38,0-.77-.03-1.17-.1-2.64-.42-4.05-1.92-4.76-3.05-.58,1.58-2.19,3.87-6.68,4.1-.33.02-.66.03-.97.03ZM40.46,13.4c-.85.58-2.53,2.03-1.68,3.89.71,1.56,2.02,1.73,2.55,1.73.47,0,.81-.12.98-.22-.18-.09-.48-.21-.7-.29-1.07-.4-3.05-1.13-2.41-3.26.22-.73.67-1.37,1.26-1.86Z"/>
            <path class="cls-3" d="M28.55.98c9.16,0,10.79,11.15,3.45,12.9-.87.21-1.63.3-2.29.3-5.14,0-4.38-5.52-4.38-5.52,0,0-2.35,4.63,2.39,6.27.92.32,1.85.47,2.76.47,3.77,0,7.14-2.52,7.2-5.97,0,0,2.35.97,2.99,3.27,0,0-3.64,1.95-2.34,4.8.69,1.53,1.97,2.02,2.99,2.02.9,0,1.6-.37,1.57-.76-.08-.84-4-.77-3.22-3.35.43-1.44,1.97-2.59,3.77-2.59,1.42,0,3.01.72,4.34,2.59,1.72,2.43,3.6,3.03,4.89,3.09h0c.08,0,.15,0,.23,0,.27,0,.51-.02.71-.05.38-.05.61-.14.65-.14-.09.18-1.66,3.07-4.82,3.07-.31,0-.64-.03-.98-.09,0,0-.99,2.57-4.2,2.57-.34,0-.7-.03-1.09-.09-4.08-.66-5.01-4.07-5.01-4.07,0,0-.04,4.77-6.54,5.12-.32.02-.64.03-.95.03-5.85,0-8.58-2.95-8.58-2.95,0,0,1.53-4.82-3.09-5.79-.56-.12-1.04-.17-1.45-.17-.54,0-.98.09-1.32.23-1.59.66-1.32,2.52-1.32,2.52,0,0,.7-.75,1.7-1.11.31-.11.66-.19,1.02-.19.53,0,1.09.16,1.64.59,2.14,1.66.74,5.27-2.33,5.34-.06,0-.11,0-.16,0-2.91,0-3.1-2.01-3.1-2.01,0,0-1.34,2.01-4.51,2.01-.54,0-1.12-.06-1.77-.19-4.44-.95-3.67-3.18-4.39-5.19-.74-2.02-1.99-2.02-1.99-2.02,0,0,.1-.09.29-.23.02-.02.05-.04.07-.05.31-.19.8-.41,1.42-.41.55,0,1.2.17,1.93.7.85.61,1.72,1,2.49,1,1.21,0,2.14-.98,2.24-3.64.1-2.64,2.09-3.87,4.54-3.87,1.58,0,3.34.51,4.9,1.48,0,0-1.62-8.88,8.52-9.82.38-.04.76-.05,1.12-.05M28.55,0c-.39,0-.8.02-1.21.06-3.48.32-6.07,1.57-7.7,3.71-1.41,1.86-1.76,3.97-1.8,5.44-1.26-.53-2.57-.81-3.83-.81-3.25,0-5.42,1.89-5.52,4.82-.05,1.23-.3,2.7-1.26,2.7-.5,0-1.18-.29-1.92-.82-.81-.58-1.65-.88-2.5-.88-.67,0-1.34.19-1.93.56-.03.02-.08.05-.11.08,0,0-.01.01-.02.02-.25.18-.38.3-.38.3-.31.29-.46.75-.28,1.14.16.35.46.57.83.57.03,0,.06,0,.08,0,.13.03.67.22,1.1,1.37.13.36.21.76.29,1.19.32,1.67.72,3.75,4.82,4.63.68.14,1.34.21,1.97.21,1.99,0,3.37-.7,4.23-1.35.61.72,1.66,1.34,3.39,1.34h.19c1.91-.05,3.53-1.21,4.11-2.98.39-1.19.22-2.39-.44-3.33.12.13.23.27.32.43.77,1.32.22,3.16.21,3.18-.11.34-.03.7.21.96.12.13,3.09,3.27,9.3,3.27.32,0,.66,0,1-.03,3.83-.2,5.84-1.9,6.77-3.59.87,1.06,2.29,2.17,4.57,2.54.43.07.85.1,1.25.1,2.73,0,4.14-1.55,4.75-2.5.15.01.29.02.44.02,3.84,0,5.68-3.58,5.7-3.61.17-.33.13-.73-.09-1.03-.19-.25-.48-.39-.78-.39-.06,0-.12,0-.18.02-.03,0-.08.02-.15.04-.08.02-.23.07-.46.1-.13.02-.32.04-.57.04-.06,0-.12,0-.19,0-1.06-.05-2.64-.55-4.14-2.68-1.38-1.94-3.21-3-5.14-3-.66,0-1.3.13-1.89.36-.85-2.57-3.38-3.64-3.49-3.68-.12-.05-.25-.07-.37-.07-.03,0-.07,0-.1,0,.02-.39,0-.78-.04-1.17-.41-3.5-3.4-7.28-8.99-7.28h0Z"/>
          </g>
          <path class="cls-1" d="M54.28,18.3c-.1.2-1.99,3.67-5.8,2.98,0,0-1.21,3.14-5.3,2.47-4.07-.66-5-4.07-5-4.07,0,0-.04,4.77-6.54,5.12-6.51.35-9.54-2.92-9.54-2.92,0,0,1.53-4.82-3.09-5.8-4.62-.97-4.09,2.58-4.09,2.58,0,0,2.22-2.38,4.36-.71,2.14,1.66.74,5.27-2.33,5.34-3.07.07-3.26-2-3.26-2,0,0-1.84,2.75-6.28,1.82-4.45-.94-3.67-3.17-4.4-5.19-.73-2.02-1.98-2.02-1.98-2.02,0,0,.13-.13.36-.28,1.6.18,3.47.9,5.21,2.82,4.3,4.74,5.72.97,8.4-2.87,2.69-3.84,8.81-3.43,10.91,1.52,2.09,4.95,7.17,4.33,8.77,1.41s3.36,1.3,6.38,2.9c3.03,1.6,4.56-3.38,4.56-3.38,0,0,1.3,2.68,5.71,1.06.48-.18.94-.38,1.35-.59,0,0,0,0,0,0,.92.04,1.52-.17,1.59-.19Z"/>
        </g>
      </g>
    </g>
  </g>
</svg>