<?xml version="1.0" encoding="UTF-8"?>
      <svg xmlns="http://www.w3.org/2000/svg" viewBox="0 0 30.23 55.14">
        <defs>
          <style>
            .cls-1 {
              fill: #b87423;
            }

            .cls-2 {
              fill: #ffe2c9;
              mix-blend-mode: multiply;
            }

            .cls-3 {
              fill: #029cf3;
            }

            .cls-4 {
              isolation: isolate;
            }

            .cls-5 {
              fill: #ffd361;
            }

            .cls-6 {
              fill: #fff6e6;
            }

            .cls-7 {
              fill: #2bfefd;
            }

            .group_api {
              animation: flameFlicker 1.8s ease-in-out infinite;
              transform-origin: bottom center;
            }

            @keyframes flameFlicker {
              0%,
              100% {
                transform: scale(1) rotate(0deg);
                opacity: 1;
              }
              20% {
                transform: scale(1.05) rotate(-1deg);
                opacity: 0.85;
              }
              40% {
                transform: scale(0.98) rotate(1deg);
                opacity: 0.9;
              }
              60% {
                transform: scale(1.03) rotate(-0.5deg);
                opacity: 1;
              }
              80% {
                transform: scale(0.99) rotate(0.5deg);
                opacity: 0.95;
              }
            }

            .flame-idle {
              animation: flameFlicker 1.6s ease-in-out infinite;
              transform-origin: bottom center;
            }

            .group_tali {
              animation: ropeSwing 5s ease-in-out infinite;
              transform-origin: top center;
            }
            @keyframes ropeSwing {
              0% {
                transform: rotate(0deg);
              }
              25% {
                transform: rotate(4deg);
              }
              50% {
                transform: rotate(0deg);
              }
              75% {
                transform: rotate(-3deg);
              }
              100% {
                transform: rotate(0deg);
              }
            }
          </style>
        </defs>
        <g class="cls-4">
          <g id="Layer_2" data-name="Layer 2">
            <g id="Layer_1-2" data-name="Layer 1">
              <g>
                <g class="group_tali">
                  <g>
                    <g>
                      <path
                        class="cls-5"
                        d="M5,54.71c-.06,0-.11-.01-.17-.03-.03-.01-.74-.32-1.38-1.16-.49-.64-1.06-1.79-1.05-3.62.01-1.38.42-2.72,1.22-3.98.77-1.19,1.6-1.83,1.63-1.86.05-.04.1-.06.16-.08l2.61-.65s.07-.01.1-.01c.13,0,.26.06.34.17.04.05.97,1.3.6,4.12-.33,2.4,1.3,3.63,1.37,3.68.12.09.19.23.17.38-.01.15-.09.28-.22.35l-1.85,1c-.06.04-.14.05-.21.05-.08,0-.15-.02-.22-.06-.03.03-.06.06-.1.08l-1.46.85c-.07.04-.14.06-.22.06,0,0-.02,0-.03,0-.18-.01-.35-.03-.5-.07-.02.05-.04.1-.08.15l-.4.48c-.08.1-.21.15-.33.15Z"
                      />
                      <path
                        class="cls-1"
                        d="M8.14,43.74s.87,1.12.51,3.8c-.37,2.7,1.54,4.09,1.54,4.09l-1.85,1s-1.44-1.58-1.5-3.53c-.08-1.83.76-3.06.87-3.21-.13.13-1.12,1.21-1.22,3.02-.1,1.92,1.31,3.8,1.31,3.8l-1.46.85c-.71-.05-1.13-.28-1.38-.52l.44.75-.4.48s-.63-.26-1.2-1.03c-.5-.67-.97-1.74-.96-3.36.02-1.55.57-2.83,1.15-3.76.74-1.13,1.53-1.75,1.53-1.75l2.61-.65M8.14,42.87c-.07,0-.14,0-.21.03l-2.61.65c-.12.03-.23.08-.32.16-.04.03-.92.72-1.73,1.96-.85,1.34-1.28,2.76-1.29,4.22-.02,1.95.61,3.19,1.13,3.89.69.92,1.47,1.27,1.55,1.3.11.05.22.07.33.07.25,0,.5-.11.66-.31l.36-.43c.09.01.17.02.26.03.02,0,.04,0,.06,0,.15,0,.3-.04.44-.12l1.41-.83s.1.01.15.01c.14,0,.28-.03.41-.11l1.85-1c.26-.14.43-.41.45-.7.02-.3-.11-.58-.35-.76-.06-.04-1.48-1.15-1.19-3.27.39-2.96-.57-4.3-.68-4.45-.17-.22-.42-.34-.68-.34h0Z"
                      />
                    </g>
                    <path
                      class="cls-2"
                      d="M10.19,51.63l-1.85,1s-1.44-1.58-1.5-3.53c-.08-1.83.76-3.06.87-3.21-.13.13-1.12,1.21-1.22,3.02-.1,1.92,1.31,3.8,1.31,3.8l-1.46.85c-.71-.05-1.13-.28-1.38-.52l.44.75-.4.48s-.63-.26-1.2-1.03c.42-.23.73-.5.84-.6.04-.04.05-.05.05-.05,0,0,1.68.1,1.03-1.52-.66-1.62.41-3.53-.22-4.68-.29-.5-.9-.46-1.49-.25.74-1.13,1.53-1.75,1.53-1.75l2.61-.65s.87,1.12.51,3.8c-.37,2.7,1.54,4.09,1.54,4.09Z"
                    />
                  </g>
                  <g>
                    <g>
                      <g>
                        <path
                          class="cls-5"
                          d="M24.49,20.97c-.23,0-.35-.14-.58-.42-.46-.53-.47-1.55-.35-2.26.08-.47.31-1.3.92-1.65.54-.3,1.32-.33,2.01-.33h.52c.2,0,.62,0,.81-.05l.18-.05c.25-.08.4-.12.55-.12.3,0,.47.17.63.33.24.25.33.46.39.6.01.03.02.06.04.09.09.14.14.25.13.4.12.55.02,1.09-.3,1.52-.36.47-.96.76-1.69.81-1.09.08-2.35.52-2.8.81-.02.03-.05.06-.07.08,0,.03-.02.06-.04.08-.08.11-.21.17-.35.17Z"
                        />
                        <path
                          class="cls-1"
                          d="M28.56,16.51c.12,0,.18.06.32.2.27.28.28.47.37.62s.06.13.07.21c.22,1.07-.46,1.77-1.6,1.85-1.13.08-2.54.55-3.05.91-.03.02-.06.04-.08.06-.04-.02-.06-.03-.08-.03-.09,0,.02.2-.01.2-.02,0-.08-.06-.26-.27-.55-.64-.36-2.79.46-3.26.43-.25,1.13-.27,1.8-.27.18,0,.36,0,.53,0,.38,0,.71,0,.93-.07.33-.1.49-.16.61-.16M24.59,20.37s0,0,.01,0c.02.01-.07.07-.09.07-.01,0,0-.02.07-.07M28.56,15.65c-.22,0-.4.06-.68.14l-.17.05c-.09.03-.32.04-.69.04h-.25s-.28,0-.28,0c-.75,0-1.6.03-2.22.39-.77.43-1.04,1.41-1.14,1.95-.15.84-.11,1.98.45,2.62.26.3.49.57.91.57.27,0,.53-.13.69-.34.02-.03.04-.06.06-.09.45-.26,1.61-.64,2.53-.7.86-.06,1.57-.41,2.01-.98.38-.51.52-1.16.39-1.85-.01-.23-.1-.4-.2-.56v-.02c-.07-.16-.18-.43-.48-.74-.18-.19-.45-.47-.94-.47h0Z"
                        />
                      </g>
                      <path
                        class="cls-2"
                        d="M24.76,16.99c.55-.42,2.62-.13,3.2-.32.59-.19.7-.24.91.05s.49.67.39.77-.14-.31-.59-.15-.97.27-1.96.24-2.42.97-2.44,1.95c0,.31.16.65.26.8.1.15.02.04,0,.04-1.07,0-.34-2.97.21-3.39Z"
                      />
                      <path
                        class="cls-6"
                        d="M28.8,17.23c.76,1.62-.91,1.77-2.09,1.59.51-.24,1.08-.24,1.54-.41.59-.14.46-.69.55-1.18h0Z"
                      />
                    </g>
                    <g>
                      <g>
                        <path
                          class="cls-5"
                          d="M23.15,25.11c-.23,0-.35-.14-.58-.43-.48-.58-.31-1.68-.25-2,.07-.34.34-1.48,1.08-1.87.54-.29,1.36-.34,2.09-.39.44-.03.94-.06,1.14-.14l.14-.06c.27-.12.44-.19.63-.19.31,0,.49.2.62.35.23.26.32.48.38.63.02.04.03.08.05.11.09.16.13.26.13.39.14.63.02,1.27-.34,1.75-.37.49-.96.78-1.66.82-1.07.07-2.43.43-2.97.73-.02.03-.05.05-.08.07,0,.02-.02.04-.03.06-.08.1-.21.17-.34.17h0Z"
                        />
                        <path
                          class="cls-1"
                          d="M27.4,20.47c.1,0,.17.06.3.21.26.3.28.51.37.67.1.16.05.15.07.23.25,1.13-.41,2.01-1.6,2.09s-2.63.48-3.19.8c-.04.02-.07.04-.09.05-.04-.02-.07-.03-.09-.03-.09,0,.01.19-.02.19-.02,0-.08-.06-.25-.27-.53-.64-.11-2.79.7-3.22.81-.43,2.58-.25,3.2-.51.32-.14.48-.21.59-.21M23.26,24.52s0,0,.01,0c.02.01-.08.06-.1.06-.01,0,0-.02.08-.07M27.4,19.61c-.28,0-.49.09-.8.23l-.13.06c-.14.06-.66.09-1,.11-.77.05-1.65.1-2.27.44-.88.47-1.2,1.67-1.3,2.17-.09.47-.25,1.65.34,2.36.26.31.48.58.92.58.26,0,.52-.12.68-.33.01-.02.02-.03.03-.05.48-.24,1.69-.58,2.73-.64.83-.05,1.53-.41,1.97-.99.43-.57.58-1.31.42-2.08-.01-.22-.1-.39-.18-.54l-.02-.05c-.06-.16-.17-.44-.45-.75-.15-.17-.44-.5-.95-.5h0Z"
                        />
                      </g>
                      <path
                        class="cls-2"
                        d="M23.67,21.18c.54-.39,2.62-.24,3.14-.49.53-.26.67-.31.88,0,.21.31.49.72.4.84-.1.12-.14-.33-.58-.13-.44.2-.91.39-1.9.4s-2.47.96-2.6,1.91c-.04.3.11.64.21.79.1.15.02.04,0,.04-1.09-.05-.09-2.97.45-3.36Z"
                      />
                      <path
                        class="cls-6"
                        d="M27.63,21.26c.76,1.68-.75,2.05-2.08,1.81.72-.36,1.74-.11,2-.98.06-.23.01-.54.08-.83h0Z"
                      />
                    </g>
                    <g>
                      <g>
                        <path
                          class="cls-5"
                          d="M21.3,28.8c-.24,0-.36-.16-.57-.44-.37-.49-.24-1.25-.12-1.65.2-.69.68-1.59,1.39-1.87.54-.21,1.33-.22,2.09-.23.49,0,1.04-.02,1.26-.09l.18-.07c.25-.09.41-.15.58-.15.34,0,.52.23.63.37.22.27.29.49.33.63.01.04.02.07.04.1.07.14.11.26.1.41.1.57-.05,1.15-.42,1.58-.41.48-1.06.75-1.83.75h0c-1.24,0-2.65.23-3.22.43-.03.02-.05.04-.08.06h-.01c-.08.11-.21.17-.33.17h0Z"
                        />
                        <path
                          class="cls-1"
                          d="M26.11,24.73c.11,0,.18.06.29.21.24.3.24.5.32.66.08.16.04.14.05.22.18,1.13-.61,1.88-1.82,1.88,0,0,0,0-.01,0-.01,0-.03,0-.04,0-1.21,0-2.74.23-3.37.48-.04.02-.08.03-.1.04-.04-.03-.07-.04-.09-.04-.08,0,0,.18-.04.18-.02,0-.08-.06-.23-.27-.48-.63.22-2.52,1.08-2.85.86-.33,2.71-.1,3.34-.32.33-.12.5-.19.62-.19M21.43,28.23s0,0,.01,0c.02.01-.08.05-.11.05-.02,0,0-.01.09-.06M26.11,23.87c-.25,0-.45.07-.73.18l-.18.07c-.16.05-.74.06-1.12.07-.8.01-1.63.03-2.24.26-.86.33-1.43,1.37-1.65,2.15-.24.83-.17,1.55.19,2.03.24.31.46.61.92.61.24,0,.47-.1.63-.27.56-.19,1.89-.39,2.96-.39h.05c.9,0,1.66-.32,2.16-.9.44-.51.62-1.19.53-1.91,0-.23-.07-.4-.15-.56v-.04c-.06-.16-.15-.44-.41-.77-.13-.16-.42-.53-.97-.53h0Z"
                        />
                      </g>
                      <path
                        class="cls-2"
                        d="M22.22,25.23c.59-.31,2.74-.08,3.28-.31.54-.23.72-.29.9.02.18.31.44.72.33.83-.11.11-.13-.32-.58-.14-.45.17-.98.35-1.97.3s-2.67.67-2.92,1.55c-.08.28.04.58.13.73.08.14.02.04,0,.04-1.15-.14.25-2.69.83-3Z"
                      />
                      <path
                        class="cls-6"
                        d="M26.29,25.51c.63,1.77-1.05,1.89-2.32,1.59.75-.31,1.76.02,2.16-.77.09-.22.06-.54.16-.83h0Z"
                      />
                    </g>
                    <g>
                      <g>
                        <path
                          class="cls-5"
                          d="M19.31,31.72c-.23,0-.35-.14-.56-.4-.29-.36-.31-.94-.07-1.58.23-.6.76-1.35,1.5-1.47.18-.03.4-.04.64-.04.4,0,.87.04,1.33.07.4.03.79.06,1.09.06.21,0,.32-.02.37-.03l.16-.04c.24-.06.4-.1.56-.1.37,0,.57.25.66.37.2.26.26.47.3.61.09.23.13.35.1.51.04.44-.1.9-.42,1.24-.38.41-.98.64-1.7.64-.12,0-.24,0-.36-.02-.48-.05-1.05-.07-1.6-.07-.7,0-1.3.04-1.62.12-.03.02-.06.03-.09.04-.08.07-.18.11-.29.11Z"
                        />
                        <path
                          class="cls-1"
                          d="M24.34,28.62c.13,0,.21.06.32.2.22.29.2.46.28.61s.03.13.04.2c.08.96-.67,1.48-1.7,1.48-.1,0-.21,0-.32-.02-.51-.05-1.09-.08-1.64-.08-.72,0-1.39.04-1.76.14-.04.01-.08.02-.11.03-.05-.03-.08-.04-.1-.04-.07,0-.01.14-.04.14-.02,0-.07-.06-.22-.24-.45-.57.27-2.2,1.17-2.36.16-.03.35-.04.57-.04.76,0,1.76.13,2.42.13.19,0,.35-.01.47-.04.31-.08.49-.13.62-.13M19.45,31.19s0,0,.01,0c.02.01-.08.03-.11.03-.02,0-.02-.01.09-.04M24.34,27.75c-.21,0-.4.05-.66.11l-.16.04s-.07.02-.26.02c-.28,0-.66-.03-1.06-.06-.46-.04-.93-.07-1.36-.07-.28,0-.51.02-.71.05-.92.15-1.55,1-1.83,1.75-.3.79-.25,1.52.13,2,.23.29.45.57.89.57.18,0,.36-.06.51-.16,0,0,.01,0,.02-.01.25-.05.75-.1,1.47-.1.53,0,1.08.03,1.55.07.14.01.27.02.41.02.84,0,1.56-.28,2.02-.78.38-.41.57-.95.54-1.55.02-.24-.05-.43-.12-.59-.06-.22-.14-.47-.38-.77-.11-.15-.42-.54-1-.54h0Z"
                        />
                      </g>
                      <path
                        class="cls-2"
                        d="M20.32,28.69c.64-.18,2.85.23,3.41.06.56-.17.76-.21.92.07.16.28.39.67.27.76-.12.09-.11-.29-.58-.17-.47.12-1.08.29-2.06.12s-2.67.2-2.99.99c-.1.25.05.5.12.63.07.13.02.04,0,.03-1.19-.21.28-2.32.92-2.5Z"
                      />
                      <path
                        class="cls-6"
                        d="M24.48,29.32c.49,1.73-1.42,1.57-2.48,1.17.57-.12,1.14-.04,1.65-.12.67-.03.66-.52.84-1.05h0Z"
                      />
                    </g>
                    <g>
                      <g>
                        <path
                          class="cls-5"
                          d="M21.39,34.43c-.19,0-.38-.01-.58-.04-.7-.1-1.7-.17-2.49-.17-.36,0-.66.02-.85.04-.01,0-.02,0-.04,0-.08.07-.18.1-.28.1h0c-.24,0-.36-.16-.55-.42-.25-.33-.26-.83-.03-1.36.27-.64.89-1.34,1.64-1.44.12-.02.25-.02.39-.02.52,0,1.15.1,1.76.19.48.07.94.14,1.22.14l.34-.03c.15-.01.26-.02.35-.02.37,0,.55.18.71.38.21.26.26.45.3.58.08.19.14.33.09.5.02.35-.12.72-.39,1.01-.35.36-.9.56-1.59.56Z"
                        />
                        <path
                          class="cls-1"
                          d="M18.6,31.56c.91,0,2.31.33,2.98.33.05,0,.09,0,.13,0,.28-.02.45-.04.56-.04.17,0,.24.05.37.21.22.28.2.42.27.57s.03.11.03.18c.03.82-.67,1.2-1.56,1.2-.17,0-.34-.01-.52-.04-.75-.11-1.77-.18-2.55-.18-.37,0-.7.02-.91.05-.04,0-.08.01-.11.02-.05-.03-.08-.04-.1-.04-.07,0-.02.13-.05.13-.02,0-.07-.06-.2-.24-.41-.56.41-1.99,1.32-2.11.1-.01.21-.02.34-.02M17.29,33.84s0,0,.01,0c.02.01-.06.02-.1.02-.04,0-.04,0,.08-.03M18.6,30.69c-.16,0-.31,0-.45.03-.93.12-1.66.94-1.98,1.69-.29.68-.26,1.33.08,1.79.2.28.44.59.9.59.15,0,.3-.04.43-.11,0,0,.02,0,.03,0,.12-.01.34-.03.71-.03.77,0,1.74.07,2.42.17.22.03.44.05.65.05.81,0,1.47-.24,1.9-.69.34-.35.52-.81.52-1.32.04-.29-.07-.5-.12-.62-.03-.14-.11-.4-.37-.73-.22-.28-.51-.54-1.04-.54-.1,0-.22,0-.39.03l-.25.02h-.05c-.25,0-.71-.07-1.15-.13-.63-.09-1.28-.19-1.83-.19h0Z"
                        />
                      </g>
                      <path
                        class="cls-2"
                        d="M18.33,31.58c.67-.17,2.78.38,3.39.3s.75-.1.92.17c.16.27.38.62.26.69-.12.07-.1-.27-.58-.21-.48.06-1.11.07-2.05-.11-.94-.18-2.7.08-3.09.79-.13.22.01.47.08.6.06.12.01.03,0,.03-1.19-.29.41-2.09,1.08-2.26Z"
                      />
                      <path
                        class="cls-6"
                        d="M22.47,32.47c.42,1.57-1.64,1.27-2.53.86.76-.18,1.57.17,2.23-.21.17-.09.16-.41.3-.66h0Z"
                      />
                    </g>
                    <g>
                      <g>
                        <path
                          class="cls-5"
                          d="M19.26,37.09c-.27,0-.56-.03-.85-.1-.98-.22-2.49-.41-3.3-.41-.07,0-.22,0-.22,0-.02,0-.04.01-.06.02-.08.04-.16.06-.22.06h0c-.27,0-.39-.2-.55-.46-.19-.32-.17-.74.06-1.18.33-.63,1.1-1.29,1.9-1.33h.14c.56,0,1.31.15,2.03.29.52.11,1.06.22,1.33.22h.49c.41,0,.6.09.83.4.18.25.23.42.26.58.06.18.11.33.04.51-.04.82-.77,1.39-1.9,1.39Z"
                        />
                        <path
                          class="cls-1"
                          d="M16.18,34.12c.96,0,2.67.52,3.36.52,0,0,.01,0,.02,0,.21,0,.36,0,.47,0,.27,0,.34.03.48.23.2.28.16.4.22.54.06.14.02.11.02.17-.05.73-.68,1.08-1.49,1.08-.24,0-.5-.03-.76-.09-1.04-.23-2.59-.42-3.4-.42-.08,0-.15,0-.21,0-.05,0-.09,0-.12,0-.05-.04-.08-.05-.1-.05-.06,0-.04.12-.06.12-.02,0-.06-.06-.18-.25-.34-.57.68-1.81,1.62-1.86.04,0,.08,0,.12,0M14.78,36.16s0,0,.01,0c.01,0-.03.01-.07.01-.06,0-.12,0,.06-.02M16.18,33.26c-.06,0-.11,0-.17,0-.97.05-1.87.83-2.26,1.56-.31.58-.33,1.15-.05,1.6.17.28.4.66.92.66.11,0,.21-.02.31-.06.03,0,.06-.01.08-.02.03,0,.06,0,.1,0,.77,0,2.27.19,3.21.4.32.07.64.11.95.11,1.32,0,2.23-.7,2.34-1.8.06-.27-.01-.49-.06-.61-.04-.17-.09-.43-.34-.76-.31-.42-.64-.58-1.18-.58-.07,0-.14,0-.24,0h-.25s0,0,0,0c-.23,0-.77-.11-1.25-.21-.74-.15-1.51-.31-2.11-.31h0Z"
                        />
                      </g>
                      <path
                        class="cls-2"
                        d="M16.12,34.14c.69-.11,2.82.54,3.45.51.62-.03.8-.05.94.22.14.27.33.6.2.66-.13.06-.09-.26-.58-.23s-1.16,0-2.1-.22c-.94-.23-2.77-.12-3.28.49-.16.2-.05.45,0,.57.04.12,0,.03,0,.03-1.18-.38.69-1.91,1.38-2.02Z"
                      />
                      <path
                        class="cls-6"
                        d="M20.28,35.24c.24,1.6-1.83,1.12-2.67.66.79-.1,1.59.26,2.3-.04.2-.07.21-.38.38-.62h0Z"
                      />
                    </g>
                    <g>
                      <g>
                        <path
                          class="cls-5"
                          d="M16.74,39.39c-.38,0-.79-.06-1.21-.18-1.16-.33-2.98-.67-3.66-.69h-.01s-.08.02-.12.02c-.06.03-.12.04-.17.04-.29,0-.41-.22-.54-.48-.09-.17-.19-.51.09-.97.37-.61,1.34-1.26,2.21-1.26.01,0,.12,0,.13,0,.55.04,1.33.25,2.08.45.61.16,1.24.33,1.54.34h.23c.53.03.79.04,1.07.47.18.28.2.48.21.6.04.14.09.32-.01.51-.15.7-.83,1.14-1.84,1.14Z"
                        />
                        <path
                          class="cls-1"
                          d="M13.32,36.3s.06,0,.09,0c.98.07,2.92.76,3.64.79s.79,0,.97.28c.18.28.13.4.17.54.04.14.01.1,0,.17-.14.62-.72.88-1.45.88-.34,0-.71-.06-1.09-.17-1.17-.33-3.02-.69-3.77-.7-.05,0-.09,0-.12,0-.05-.04-.08-.06-.11-.06-.06,0-.05.11-.08.11-.02,0-.06-.06-.16-.25-.29-.55.95-1.59,1.91-1.59M11.75,38.08h0s0,0,.01.01c0,0,0,0-.03,0-.07,0-.2-.02.02-.02M13.32,35.43c-1.06,0-2.14.75-2.58,1.47-.28.47-.32.98-.1,1.4.14.26.38.71.92.71.08,0,.17-.01.24-.04.03,0,.06,0,.09-.01.69.03,2.4.35,3.51.67.46.13.91.2,1.33.2,1.18,0,2.02-.55,2.27-1.48.11-.28.05-.52.01-.66-.03-.24-.08-.48-.28-.79-.4-.62-.87-.64-1.42-.66h-.23c-.25-.02-.89-.19-1.45-.34-.77-.2-1.57-.42-2.16-.46-.05,0-.11,0-.16,0h0Z"
                        />
                      </g>
                      <path
                        class="cls-2"
                        d="M13.48,36.32c.74-.02,2.94.78,3.59.78.64,0,.83.01.95.27.12.26.28.6.14.65-.15.05-.06-.25-.58-.26-.52-.01-1.22-.09-2.19-.4-.97-.31-2.92-.4-3.57.15-.21.18-.12.42-.09.54.03.12,0,.03-.01.03-1.2-.43,1.03-1.75,1.77-1.76Z"
                      />
                      <path
                        class="cls-6"
                        d="M17.75,37.71c-.05,1.57-2.09.88-2.93.37.84-.02,1.63.38,2.43.18.24-.03.31-.32.51-.56h0Z"
                      />
                    </g>
                    <g>
                      <g>
                        <path
                          class="cls-5"
                          d="M13.66,41.35c-.44,0-.94-.09-1.44-.25-1.12-.37-2.94-.74-3.69-.76h0s-.08.02-.12.02c-.08.03-.15.04-.17.04-.31,0-.42-.25-.54-.52-.07-.16-.15-.5.14-.95.39-.6,1.39-1.25,2.32-1.25.07,0,.14,0,.21.01.61.07,1.46.35,2.28.61.6.2,1.17.38,1.48.42l.29.04c.5.06.76.09,1.01.52.16.28.17.47.17.63.01.1.05.3-.08.48-.3.62-.95.96-1.84.96Z"
                        />
                        <path
                          class="cls-1"
                          d="M10.15,38.11c.05,0,.11,0,.16,0,1.03.12,2.99.93,3.75,1.03.76.1.82.06.98.35.16.28.09.38.11.51.03.13,0,.1-.03.16-.24.52-.79.74-1.46.74-.41,0-.86-.08-1.3-.23-1.19-.39-3.04-.76-3.81-.78-.05,0-.09,0-.13,0-.05-.04-.08-.06-.1-.06-.06,0-.06.12-.08.12-.02,0-.05-.06-.14-.26-.25-.56,1.04-1.59,2.06-1.59M8.4,39.9s.01,0,.02,0c0,0,0,0,.01.01,0,0,0,0-.03,0-.07,0-.2-.02,0-.02M10.15,37.25c-1.09,0-2.22.74-2.68,1.45-.4.61-.28,1.12-.17,1.36.12.27.34.77.93.77.09,0,.17-.01.25-.04.03,0,.05,0,.08-.01.67.03,2.38.37,3.52.74.54.18,1.09.27,1.57.27,1.03,0,1.83-.42,2.21-1.16.14-.2.19-.44.15-.71,0-.23-.02-.5-.22-.85-.35-.61-.78-.66-1.32-.73l-.29-.04c-.26-.04-.87-.23-1.4-.41-.84-.27-1.71-.56-2.37-.63-.08,0-.17-.01-.26-.01h0Z"
                        />
                      </g>
                      <path
                        class="cls-2"
                        d="M10.38,38.14c.77.02,3.02.95,3.69,1.02.68.07.86.08.97.34s.22.59.05.61c-.16.03-.02-.24-.57-.3-.55-.06-1.28-.18-2.27-.55-.99-.36-3.06-.52-3.74.05-.21.18-.16.42-.13.55.03.13,0,.03-.02.03-1.19-.44,1.23-1.78,2-1.76Z"
                      />
                      <path
                        class="cls-6"
                        d="M14.71,39.79c-.35,1.51-2.27.68-3.16.17,1.16-.03,2.41.9,3.16-.17h0Z"
                      />
                    </g>
                    <g>
                      <g>
                        <path
                          class="cls-5"
                          d="M7.73,44.99c-.26,0-.51-.03-.7-.08-.38-.1-.81-.22-1.17-.44-.99-.57-1.19-1.23-1.18-1.68.01-.57.39-1.12.95-1.41.44-.22,1.48-.46,2.4-.46,1.77,0,2.1.85,2.14,1.35.08.96-.5,1.96-1.47,2.53-.27.16-.72.19-.97.19Z"
                        />
                        <path
                          class="cls-1"
                          d="M8.03,41.35c.87,0,1.65.23,1.71.95.07.83-.47,1.66-1.26,2.13-.14.08-.44.12-.75.12-.21,0-.43-.02-.59-.06-.39-.1-.76-.22-1.07-.39-1.5-.86-.97-1.96-.25-2.33.36-.18,1.32-.42,2.2-.42M8.03,40.49h0c-.99,0-2.1.26-2.59.51-.7.36-1.17,1.06-1.19,1.79-.01.47.15,1.35,1.4,2.07.41.24.88.37,1.28.48.29.08.6.09.81.09.36,0,.85-.04,1.19-.25,1.11-.66,1.77-1.81,1.68-2.94-.04-.53-.38-1.75-2.57-1.75h0Z"
                        />
                      </g>
                      <path
                        class="cls-2"
                        d="M5.83,41.76c.74-.32,3.79-.91,3.91.54.07.83-.45,1.76-1.27,2.06-.11.04-.63-.31-1.02-.38-.39-.07-.96.24-1.4.04-1.42-.63-.96-1.94-.22-2.26Z"
                      />
                      <g>
                        <path
                          class="cls-5"
                          d="M10.02,43.27c-.38,0-.77-.06-1.17-.18-1.06-.33-2.56-.54-3.29-.54h-.18s-.07.03-.1.03c-.06.04-.12.06-.19.06h0c-.3,0-.41-.24-.55-.52-.16-.33-.09-.76.18-1.19.42-.66,1.33-1.36,2.21-1.36.73.02,1.65.34,2.47.63.51.18.99.35,1.25.38l.28.04c.53.07.83.11,1.05.56.14.29.13.48.11.64,0,.11.04.31-.14.49-.29.58-1.02.96-1.95.96Z"
                        />
                        <path
                          class="cls-1"
                          d="M6.95,39.99s.02,0,.03,0c1.05.03,2.87.9,3.64,1.01.77.11.86.08,1,.36.14.29.05.39.07.52.02.13,0,.1-.04.16-.27.53-.88.8-1.62.8-.33,0-.68-.05-1.04-.16-1.08-.33-2.63-.56-3.42-.56-.06,0-.12,0-.17,0-.05,0-.09,0-.12,0-.05-.04-.08-.05-.1-.05-.06,0-.05.13-.07.13-.02,0-.06-.06-.16-.27-.29-.61.96-1.93,2-1.93M5.27,42.12s0,0,.01.01c.01.01-.03.01-.07.01-.06,0-.12-.01.06-.03M6.95,39.13c-1.04,0-2.09.79-2.58,1.56-.36.57-.43,1.14-.21,1.61.14.3.36.76.94.76.11,0,.22-.02.32-.07.03,0,.06-.01.09-.02.02,0,.04,0,.06,0,.69,0,2.16.22,3.17.53.44.13.87.2,1.29.2,1.07,0,1.92-.43,2.35-1.19.19-.25.19-.52.18-.67.03-.23.02-.5-.15-.86-.32-.66-.81-.73-1.38-.8l-.28-.04c-.23-.03-.71-.2-1.17-.36-.85-.3-1.81-.63-2.56-.65,0,0-.04,0-.05,0h0Z"
                        />
                      </g>
                      <path
                        class="cls-2"
                        d="M7.05,40c.77-.05,2.9.92,3.57,1s.91.09.99.36c.07.27.17.59,0,.62-.17.03-.02-.25-.57-.3-.55-.05-1.24-.21-2.23-.56-.98-.35-2.93-.3-3.49.35-.18.21-.12.48-.08.62.04.14,0,.04-.01.03-1.2-.41,1.06-2.06,1.82-2.11Z"
                      />
                      <path
                        class="cls-6"
                        d="M11.23,41.65c-.35,1.42-2.15.8-3.03.28,1.07-.04,2.24.72,3.03-.28h0Z"
                      />
                    </g>
                  </g>
                </g>
                <g class="group_api">
                  <path
                    class="cls-3"
                    d="M6.48,0s.27,2.21,2.68,3.58,2.57,2.84,2.43,4.07-.14,2.7.69,4.18,1.09,2.35,1.05,3.19c0,0,.59-1.27.36-2.93s-.57-2.09-.57-2.09c0,0,.67.21.99.66,0,0-.16-2.79.76-3.87,0,0-.43,2.14.08,4.05s1.38,2.81,1.38,2.81c0,0-1.44.82-1.32,1.81s1.28,2.05,1.25,3.21-1.06,3.27-2.41,4.71-3.04,1.71-4.33,1.75-3.52-.16-4.04-.24-2.96-1.42-4.04-3.21-1.07-4.11-.2-5.83.66-2.83.13-3.58-1.36-1.35-1.36-1.35c0,0,2.41-1.56,3.23-4.89,0,0-.11,1.5-.59,3.03s-.22,3.14.55,3.22,1.15-1.21,1.15-2.2,1.5-1.12,2.91-2.34,1.3-2.71.39-3.91-1.15-2.21-1.15-3.82Z"
                  />
                  <path
                    class="cls-7"
                    d="M9.31,7.42s-.36,3.02-1.77,4.94-2.21,1.86-3.08,2.01-2.26.97-1.51,5.02,3.52,4.46,4.98,4.48c1.46.01,3.8-.1,4.99-2.22s-.1-3.49-1.46-4.31-1-1.75-.43-2.79.69-3.51-1.72-7.13Z"
                  />
                </g>
              </g>
            </g>
          </g>
        </g>
      </svg>
