<?xml version="1.0" encoding="UTF-8"?>
<svg id="Layer_2" data-name="Layer 2" xmlns="http://www.w3.org/2000/svg" viewBox="0 0 34 38.66">
  <defs>
    <style>
      .cls-1 {
        fill: #5a0c10;
      }

      .cls-2 {
        fill: #fffeff;
      }

      .cls-3 {
        fill: none;
        stroke: #9c3444;
        stroke-linecap: round;
        stroke-linejoin: round;
        stroke-width: .63px;
      }

      .cls-4 {
        fill: #9c3444;
      }
    </style>
  </defs>
  <g id="Layer_1-2" data-name="Layer 1">
    <g>
      <g>
        <g>
          <path class="cls-2" d="M9.32,9.68c-.08,0-.17-.03-.23-.1-.07-.07-.1-.16-.09-.26.12-.92,1.21-9,3.78-9.01,2.49,0,6.62,7.13,7.08,7.95.05.09.05.21,0,.3-.05.09-.14.16-.25.17,0,0-10.3.95-10.31.95Z"/>
          <path class="cls-4" d="M12.8.63c2.37,0,6.8,7.79,6.8,7.79l-10.28.95S10.42.64,12.79.63h0M12.8,0h0c-2.71.01-3.82,7.11-4.09,9.29-.02.19.04.38.17.51.12.12.28.19.45.19.02,0,.04,0,.06,0l10.28-.95c.21-.02.4-.15.5-.33.1-.19.09-.41-.01-.6-.77-1.35-4.74-8.11-7.34-8.11h0Z"/>
        </g>
        <path class="cls-1" d="M11,7.51s.16-4.8,2.08-5.16,3.92,4.81,3.92,4.81l-6,.35Z"/>
      </g>
      <g>
        <path class="cls-2" d="M24.26,38.35c-1.48,0-3.14-.25-4.94-.75C7.21,34.25.42,14.67.31,7.41c-.02-1.6.32-2.76,1.01-3.47.52-.53,1.24-.8,2.13-.8,2.76,0,6.46,2.59,7.17,3.11.33-.06,1.2-.21,2.36-.21,1.91,0,4.69.4,7.05,2.32,4.58,3.72,5.61,9.4,5.65,9.64,0,.03,0,.06,0,.09.65.3,1.5.6,2.36.6.13,0,.26,0,.39-.02l.65-.08c.4-.05.73-.09,1.03-.11.1,0,.2,0,.29,0,.78,0,1.33.24,2,.9.76.75,1.36,4.25,1.28,7.5-.03,1.44-.19,2.76-.47,3.92-1.23,5.01-4.24,7.54-8.95,7.54Z"/>
        <path class="cls-4" d="M3.46,3.45c2.93,0,7.1,3.13,7.1,3.13,0,0,.99-.23,2.44-.23,1.89,0,4.57.4,6.85,2.25,4.54,3.69,5.54,9.46,5.54,9.46l-1.02-.36s1.82,1.31,3.69,1.31c.14,0,.28,0,.42-.02.7-.08,1.23-.16,1.66-.19.1,0,.19,0,.27,0,.67,0,1.14.18,1.78.81.61.59,1.27,3.86,1.19,7.27-.03,1.32-.17,2.65-.46,3.86-.86,3.49-2.94,7.31-8.65,7.31-1.39,0-3-.23-4.86-.74C7.46,34,.74,14.76.63,7.4c-.04-2.99,1.2-3.95,2.83-3.95M3.46,2.82c-.98,0-1.77.3-2.35.89C.35,4.49-.02,5.73,0,7.41c.05,3.51,1.65,10.25,5.02,16.75,2.71,5.23,7.38,11.85,14.21,13.74,1.83.51,3.52.76,5.03.76,4.88,0,7.99-2.62,9.26-7.78.29-1.18.45-2.53.48-4,.07-3.01-.46-6.84-1.38-7.73-.73-.71-1.35-.99-2.22-.99-.1,0-.2,0-.31,0-.31.02-.65.06-1.06.11-.2.02-.41.05-.63.08-.12.01-.23.02-.35.02-.73,0-1.47-.24-2.06-.5-.13-.7-1.29-6.14-5.75-9.77-2.43-1.98-5.28-2.39-7.24-2.39-1.05,0-1.88.12-2.29.19-.94-.67-4.51-3.09-7.24-3.09h0Z"/>
      </g>
      <path class="cls-4" d="M17.06,23.87s-3.26,1.33-5.84.08-2.04-3.22-1.35-3.35,1.48,2.77,7.2,3.28Z"/>
      <path class="cls-4" d="M15.48,25.88s-1.74,1.72-3.56,1.39-1.48-1.32-1.25-1.52,2.4,1.42,4.81.13Z"/>
      <path class="cls-3" d="M27.31,18.63s-4.42-.1-4.75-4.61"/>
      <g>
        <path class="cls-1" d="M20.34,20.42c-.51-.31-1.03-.44-1.79-.44-.37,0-.77.03-1.21.06-.52.04-1.1.08-1.78.08-2.48,0-4.74-2.77-4.84-2.89l-.37-.46.58.08s1.13.14,2.56.14c.87,0,1.67-.05,2.39-.15.13-.02.25-.03.37-.03,2.39,0,4.33,3.15,4.41,3.29l.51.84-.83-.52Z"/>
        <path class="cls-4" d="M16.25,17.04c2.29,0,4.21,3.17,4.21,3.17-.61-.38-1.21-.48-1.92-.48-.8,0-1.74.13-2.99.14-.01,0-.02,0-.03,0-2.36,0-4.62-2.81-4.62-2.81,0,0,1.13.15,2.59.15.75,0,1.59-.04,2.42-.16.11-.02.23-.02.34-.02M9.8,16.46l.73.91c.1.12,2.43,2.98,4.98,2.98.72,0,1.31-.05,1.83-.08.45-.03.84-.06,1.2-.06.72,0,1.2.12,1.67.41l1.66,1.03-1.01-1.67c-.08-.14-2.09-3.4-4.61-3.4h0s0,0,0,0c-.14,0-.27,0-.41.03-.71.1-1.5.15-2.35.15-1.42,0-2.52-.14-2.53-.14l-1.16-.15h0Z"/>
      </g>
      <path class="cls-4" d="M31.51,22.3s.83,2.41.92,3.92c.07,1.06.52,1.03.94.65.08-3.41-.58-6.68-1.19-7.27-.73-.71-1.23-.85-2.05-.8-.38.49-.86,1-1.33,1.25-1.01.53,1.15,2.29,2.7,2.26Z"/>
      <path class="cls-4" d="M33.8,29.27c-.6,1.9-2.16,1.7-3.16.25-.02-.01.42-.02.41-.03-2.14,3.89-6.34,3.85-9.67,1.49-.69-.43.03-1.45.67-.94,2.85,2.28,6.42,2.57,8.57-.8.09-.15.32-.15.41,0,.33.43.82.84,1.29.86.51.03.73-.62.88-1.03.12-.4.74-.19.59.2h0Z"/>
      <path class="cls-1" d="M8.46,8.03s-3.51-3.49-5.08-3.1c-1.57.39-.04,8.43-.04,8.43,0,0,2.67-4.72,5.12-5.34Z"/>
    </g>
  </g>
</svg>